<svg xmlns="http://www.w3.org/2000/svg" version="1.1" xmlns:xlink="http://www.w3.org/1999/xlink" xmlns:svgjs="http://svgjs.dev/svgjs" width="128" height="128" viewBox="0 0 128 128"><g transform="matrix(0.8046875,0,0,0.8046875,12.760301296239383,12.760752631578946)"><svg viewBox="0 0 95 95" data-background-color="#ffffff" preserveAspectRatio="xMidYMid meet" height="128" width="128" xmlns="http://www.w3.org/2000/svg" xmlns:xlink="http://www.w3.org/1999/xlink"><g id="tight-bounds" transform="matrix(1,0,0,1,-0.24008371983244103,-0.24049999999999727)"><svg viewBox="0 0 95.48016743966487 95.481" height="95.481" width="95.48016743966487"><g><svg viewBox="0 0 95.48016743966487 95.481" height="95.481" width="95.48016743966487"><g><svg viewBox="0 0 95.48016743966487 95.481" height="95.481" width="95.48016743966487"><g id="textblocktransform"><svg viewBox="0 0 95.48016743966487 95.481" height="95.481" width="95.48016743966487" id="textblock"><g><svg viewBox="0 0 95.48016743966487 95.481" height="95.481" width="95.48016743966487"><g><svg viewBox="0 0 95.48016743966487 95.481" height="95.481" width="95.48016743966487"><g><svg xmlns="http://www.w3.org/2000/svg" xmlns:xlink="http://www.w3.org/1999/xlink" version="1.1" x="0" y="0" viewBox="5 4.9992152251910404 90 90.00078477480896" enable-background="new 0 0 100 100" xml:space="preserve" height="95.481" width="95.48016743966487" class="icon-icon-0" data-fill-palette-color="accent" id="icon-0"><g fill="#FF0000" data-fill-palette-color="accent"><g fill="#FF0000" data-fill-palette-color="accent"><path d="M50 86.819c9.709 0 17.618-4.473 22.418-10.855 1.309-1.8 3.873-2.182 5.727-0.818 1.8 1.309 2.182 3.873 0.818 5.727C72.691 89.273 62.273 95 50 95c-12.327 0-22.691-5.727-28.909-14.127-1.364-1.855-0.982-4.418 0.818-5.727 1.8-1.364 4.364-0.982 5.727 0.818C32.436 82.4 40.236 86.819 50 86.819z" fill="#FF0000" data-fill-palette-color="accent"></path><path d="M71.436 60.637h19.473c2.291 0 4.091 1.8 4.091 4.091 0 2.236-1.8 4.091-4.091 4.091H70.891c-3.764 0-6.818-2.836-7.473-6.327v-0.055L62.764 58.4l-1.255 6.655-1.8 9.818c-0.382 1.855-1.364 3.545-2.782 4.691-1.364 1.091-3.055 1.636-4.691 1.636s-3.327-0.545-4.691-1.636c-1.418-1.145-2.4-2.836-2.782-4.691l-1.8-9.818-2.4-12.982-1.855 10.364v0.055c-0.655 3.545-3.655 6.327-7.473 6.327H9.091C6.855 68.819 5 66.964 5 64.728c0-2.291 1.855-4.091 4.091-4.091h21.6l2.4-13.309v-0.055c0.327-1.855 1.364-3.6 2.727-4.691 1.418-1.091 3.109-1.636 4.745-1.636s3.327 0.545 4.691 1.636c1.418 1.091 2.4 2.836 2.727 4.691l3 16.255 1.255 6.6 1.2-6.545 1.855-10.036c0.327-1.909 1.364-3.6 2.727-4.691 1.418-1.145 3.055-1.636 4.745-1.636 1.636 0 3.327 0.491 4.691 1.636 1.418 1.091 2.4 2.782 2.727 4.691V53.6L71.436 60.637z" fill="#FF0000" data-fill-palette-color="accent"></path><path d="M74.436 50.6l-18-33.545c-1.473-2.673-3.873-3.818-6.436-3.873-2.564 0.055-4.964 1.2-6.382 3.873l-18 33.545c-0.382 0.709-0.709 1.364-0.982 2.018v0.055c-0.818 2.073-3.218 3.109-5.291 2.236-2.127-0.818-3.109-3.218-2.291-5.291 0.382-0.982 0.818-1.909 1.364-2.891l18-33.545C39.255 7.782 44.709 4.946 50 5c5.291-0.055 10.745 2.782 13.636 8.182l18 33.545c0.491 0.982 0.927 1.909 1.364 2.891 0.818 2.073-0.218 4.473-2.291 5.291-2.127 0.873-4.473-0.164-5.345-2.291C75.091 51.964 74.764 51.309 74.436 50.6z" fill="#FF0000" data-fill-palette-color="accent"></path></g></g></svg></g></svg></g></svg></g></svg></g></svg></g></svg></g><defs></defs></svg><rect width="95.48016743966487" height="95.481" fill="none" stroke="none" visibility="hidden"></rect></g></svg></g></svg>